HIERARCHY
ROOT Hips
{
	OFFSET 0.000000 0.000000 0.000000
	CHANNELS 6 Xposition Yposition Zposition Zrotation Yrotation Xrotation 
	JOINT LeftUpLeg_virtual
	{
		OFFSET 0.000000 0.000000 0.000000
		CHANNELS 3 Zrotation Yrotation Xrotation
		JOINT LeftUpLeg
		{
			OFFSET 8.479694 -4.795517 -0.379053
			CHANNELS 3 Zrotation Yrotation Xrotation
			JOINT LeftLeg
			{
				OFFSET 0.485052 -32.551468 0.112863
				CHANNELS 3 Zrotation Yrotation Xrotation
				JOINT LeftFoot
				{
					OFFSET 0.438033 -32.635670 -3.012641
					CHANNELS 3 Zrotation Yrotation Xrotation
					JOINT LeftToeBase
					{
						OFFSET 0.970169 -13.225353 11.864223
						CHANNELS 3 Zrotation Yrotation Xrotation
						End Site
						{
							OFFSET 0.000000 0.000000 0.000000
						}
					}
				}
			}
		}
	}
	JOINT RightUpLeg_virtual
	{
		OFFSET 0.000000 0.000000 0.000000
		CHANNELS 3 Zrotation Yrotation Xrotation
		JOINT RightUpLeg
		{
			OFFSET -8.479694 -4.795517 -0.379053
			CHANNELS 3 Zrotation Yrotation Xrotation
			JOINT RightLeg
			{
				OFFSET -0.484100 -32.551483 0.112903
				CHANNELS 3 Zrotation Yrotation Xrotation
				JOINT RightFoot
				{
					OFFSET -0.438985 -32.635651 -3.012681
					CHANNELS 3 Zrotation Yrotation Xrotation
					JOINT RightToeBase
					{
						OFFSET -0.970169 -13.225354 11.864223
						CHANNELS 3 Zrotation Yrotation Xrotation
						End Site
						{
							OFFSET 0.000000 0.000000 0.000000
						}
					}
				}
			}
		}
	}
	JOINT Spine_virtual
	{
		OFFSET 0.000000 0.000000 0.000000
		CHANNELS 3 Zrotation Yrotation Xrotation
		JOINT Spine
		{
			OFFSET 0.000000 7.722015 1.166203
			CHANNELS 3 Zrotation Yrotation Xrotation
			JOINT Spine1
			{
				OFFSET 0.000000 12.024086 0.248766
				CHANNELS 3 Zrotation Yrotation Xrotation
				JOINT Spine2
				{
					OFFSET -0.000000 11.503036 -0.491240
					CHANNELS 3 Zrotation Yrotation Xrotation
					JOINT Neck_virtual
					{
						OFFSET 0.000000 0.000000 0.000000
						CHANNELS 3 Zrotation Yrotation Xrotation
						JOINT Neck
						{
							OFFSET 0.000000 18.430687 -3.123054
							CHANNELS 3 Zrotation Yrotation Xrotation
							JOINT Head
							{
								OFFSET -0.000000 9.051071 1.034021
								CHANNELS 3 Zrotation Yrotation Xrotation
								End Site
								{
									OFFSET 0.000000 0.000000 0.000000
								}
							}
						}
					}
					JOINT LeftShoulder_virtual
					{
						OFFSET 0.000000 0.000000 0.000000
						CHANNELS 3 Zrotation Yrotation Xrotation
						JOINT LeftShoulder
						{
							OFFSET 6.197824 13.665230 -4.064723
							CHANNELS 3 Zrotation Yrotation Xrotation
							JOINT LeftArm
							{
								OFFSET 7.778132 -0.187073 -1.709282
								CHANNELS 3 Zrotation Yrotation Xrotation
								JOINT LeftForeArm
								{
									OFFSET 21.954697 0.000000 -2.041093
									CHANNELS 3 Zrotation Yrotation Xrotation
									JOINT LeftHand
									{
										OFFSET 22.992908 0.000000 -0.870901
										CHANNELS 3 Zrotation Yrotation Xrotation
										End Site
										{
											OFFSET 0.000000 0.000000 0.000000
										}
									}
								}
							}
						}
					}
					JOINT RightShoulder_virtual
					{
						OFFSET 0.000000 0.000000 0.000000
						CHANNELS 3 Zrotation Yrotation Xrotation
						JOINT RightShoulder
						{
							OFFSET -6.197824 13.665230 -4.064723
							CHANNELS 3 Zrotation Yrotation Xrotation
							JOINT RightArm
							{
								OFFSET -7.778132 -0.187073 -1.709282
								CHANNELS 3 Zrotation Yrotation Xrotation
								JOINT RightForeArm
								{
									OFFSET -21.954697 0.000000 -2.041093
									CHANNELS 3 Zrotation Yrotation Xrotation
									JOINT RightHand
									{
										OFFSET -22.992908 0.000000 -0.870901
										CHANNELS 3 Zrotation Yrotation Xrotation
										End Site
										{
											OFFSET 0.000000 0.000000 0.000000
										}
									}
								}
							}
						}
					}
				}
			}
		}
	}
}
MOTION
Frames: 7
Frame Time: 0.033333
15.679360 78.597580 20.095572 -179.811246 1.057844 179.891460 -1.756638 -0.698332 10.043448 -0.674870 0.428816 -32.929240 3.276350 3.164771 23.868711 -0.774762 -5.214561 -8.264732 0.000000 0.000000 0.000000 2.826801 -2.492052 9.782982 -1.307779 9.712730 -32.723416 -0.048449 6.318039 30.945962 8.313614 3.231358 -14.152913 0.000000 0.000000 0.000000 3.772482 0.962695 -1.076056 -1.724663 -2.675550 -6.229530 -1.197089 -1.811487 7.570156 -0.055452 -0.048342 -0.025160 -1.688581 -0.100344 8.451254 -1.258742 0.974625 -2.302166 0.000000 0.000000 0.000000 -0.173122 0.489126 5.846773 -13.626972 -6.094316 0.487499 -58.713816 -4.186974 11.687299 1.606240 -23.831848 4.823586 0.000000 0.000000 0.000000 -4.351654 1.938028 5.243462 26.022592 2.000281 5.684213 49.091445 0.119753 13.022769 -5.506110 26.216728 -2.897622 0.000000 0.000000 0.000000 
15.734369 78.573692 20.022188 -179.799389 1.180629 179.897457 -1.819635 -0.802907 9.889422 -0.673436 0.307963 -32.911287 3.111673 2.775854 23.692697 -1.066834 -5.500477 -7.892212 0.000000 0.000000 0.000000 2.723291 -2.701239 9.695811 -1.241982 9.979455 -32.829407 -0.014187 6.211724 31.214716 8.292897 3.202693 -13.774643 0.000000 0.000000 0.000000 3.823170 0.939524 -1.184697 -1.791500 -2.628774 -6.181587 -1.227343 -1.810143 7.596974 -0.029946 -0.059127 -0.042691 -1.714879 0.005103 8.480802 -1.284620 0.950224 -2.304069 0.000000 0.000000 0.000000 -0.203170 0.604599 5.962514 -13.702158 -6.232785 0.465656 -58.743377 -4.329028 11.870179 1.497318 -23.949782 4.924773 0.000000 0.000000 0.000000 -4.395328 1.946495 5.285588 26.000522 2.066566 5.798814 49.066068 0.251744 13.296831 -5.561468 26.347084 -2.909258 0.000000 0.000000 0.000000 
15.763247 78.563141 19.935806 -179.807257 1.380901 179.924682 -1.758908 -0.804370 9.757409 -0.671442 0.271965 -32.788460 3.235877 2.956709 23.752270 -1.072109 -5.509130 -7.881380 0.000000 0.000000 0.000000 2.715756 -2.643253 9.543424 -1.168966 9.924018 -32.764694 0.023711 6.208248 31.438097 8.356984 3.241571 -13.824867 0.000000 0.000000 0.000000 3.851486 0.920512 -1.284406 -1.869511 -2.573078 -6.227395 -1.251140 -1.826657 7.602727 -0.010372 -0.047930 -0.038295 -1.804092 -0.068907 8.537882 -1.284990 0.949110 -2.147100 0.000000 0.000000 0.000000 -0.252291 0.509476 5.976135 -13.767231 -6.189739 0.392092 -58.562226 -4.383625 11.731497 1.356604 -24.242906 5.073412 0.000000 0.000000 0.000000 -4.483329 1.962194 5.245423 25.941106 2.025604 5.768861 49.077334 0.193075 13.598307 -5.488705 26.749203 -2.997035 0.000000 0.000000 0.000000 
15.774950 78.568306 19.822969 -179.785728 1.583993 179.931321 -1.714690 -0.735689 9.677590 -0.611832 0.240403 -32.691314 3.367932 3.319395 23.798602 -1.190236 -5.660847 -7.881166 0.000000 0.000000 0.000000 2.759571 -2.391427 9.457613 -1.105957 9.765312 -32.610226 0.007697 6.256155 31.588344 8.384940 3.206091 -13.940741 0.000000 0.000000 0.000000 3.884459 0.927287 -1.327201 -1.935388 -2.528336 -6.307326 -1.199022 -1.852691 7.602875 -0.099228 -0.027227 -0.013776 -1.805189 -0.159236 8.565185 -1.187823 0.898774 -1.848574 0.000000 0.000000 0.000000 -0.294262 0.456041 6.024424 -13.720467 -6.065972 0.352097 -58.315520 -4.639269 11.569032 1.227967 -24.421821 5.109598 0.000000 0.000000 0.000000 -4.506035 1.805400 5.239590 25.893433 2.170765 5.791703 49.068386 0.115754 13.883318 -5.564376 27.168025 -2.999095 0.000000 0.000000 0.000000 
15.779527 78.591888 19.707012 -179.841312 1.782470 179.923821 -1.775380 -0.619275 9.684358 -0.562453 0.227261 -32.603071 3.455763 3.558339 23.771594 -1.254525 -5.779996 -7.834938 0.000000 0.000000 0.000000 2.658716 -2.301729 9.360544 -1.010157 9.839366 -32.403449 0.019593 6.283354 31.583430 8.425103 3.193095 -13.962571 0.000000 0.000000 0.000000 3.902824 0.979779 -1.340773 -2.051409 -2.513750 -6.415030 -1.295093 -1.912310 7.604294 -0.033680 -0.055010 0.001886 -1.817229 -0.188963 8.624729 -1.127083 0.915491 -1.437997 0.000000 0.000000 0.000000 -0.276392 0.422111 5.942305 -13.767447 -5.888855 0.337253 -58.057072 -4.764742 11.433346 1.079675 -24.490246 5.094043 0.000000 0.000000 0.000000 -4.489983 1.783866 5.279814 25.819324 2.321012 5.913264 49.024537 -0.033569 14.084682 -5.621202 27.385959 -3.081659 0.000000 0.000000 0.000000 
15.816790 78.620056 19.627695 -179.815248 1.885534 179.938793 -1.825583 -0.495601 9.673280 -0.435029 0.266252 -32.547460 3.539198 3.679263 23.778938 -1.315961 -5.944360 -7.827375 0.000000 0.000000 0.000000 2.683346 -2.081025 9.330465 -0.937126 9.701463 -32.239453 0.001118 6.257865 31.492616 8.409736 3.168473 -13.992688 0.000000 0.000000 0.000000 3.958494 1.012107 -1.394244 -2.148096 -2.504539 -6.506425 -1.275990 -1.970734 7.570204 -0.008343 -0.065487 0.049294 -1.866405 -0.318779 8.678112 -0.944617 0.904166 -0.997207 0.000000 0.000000 0.000000 -0.332135 0.359977 5.922618 -13.721118 -5.703124 0.283246 -57.872869 -4.901532 11.169733 0.853808 -24.346107 5.127979 0.000000 0.000000 0.000000 -4.556339 1.752118 5.282621 25.847051 2.412748 5.939125 49.035605 -0.172329 14.093065 -5.657997 27.353555 -3.207077 0.000000 0.000000 0.000000 
15.870772 78.628380 19.551491 -179.824319 1.960726 179.965157 -1.905222 -0.407566 9.613727 -0.339952 0.315527 -32.503409 3.579558 3.808729 23.902915 -1.359902 -6.150586 -7.911934 0.000000 0.000000 0.000000 2.683433 -1.886154 9.277092 -0.861552 9.641028 -32.140493 -0.029578 6.303970 31.515429 8.320394 3.111850 -14.064146 0.000000 0.000000 0.000000 3.978422 1.056582 -1.560358 -2.273924 -2.474458 -6.523433 -1.271716 -2.003312 7.614496 -0.046649 -0.026743 -0.020924 -1.833989 -0.349711 8.853161 -0.684021 0.856601 -0.511020 0.000000 0.000000 0.000000 -0.323883 0.301504 6.008361 -13.654075 -5.597909 0.289003 -57.854530 -4.893317 10.876296 0.706220 -24.153620 5.005929 0.000000 0.000000 0.000000 -4.481794 1.572357 5.460002 25.915107 2.525541 6.002564 49.085752 -0.077363 14.194615 -5.715300 27.259866 -3.262467 0.000000 0.000000 0.000000 
